<svg width="24" height="24" viewBox="0 0 24 24" fill="none" xmlns="http://www.w3.org/2000/svg">
<path fill-rule="evenodd" clip-rule="evenodd" d="M15.0895 6.38234L16.4791 4.99269C16.8164 4.67179 17.2656 4.49502 17.7313 4.50011C18.1987 4.50522 18.6455 4.69312 18.9761 5.02359C19.3066 5.35405 19.4947 5.8008 19.4999 6.26818C19.5051 6.73381 19.3285 7.18304 19.0077 7.5204L17.6176 8.91039L15.0895 6.38234ZM14.3824 7.08947L5.54508 15.9273C5.36531 16.107 5.24274 16.336 5.19287 16.5853L4.6374 19.3626L7.41389 18.8072C7.6632 18.7573 7.89217 18.6348 8.07193 18.455L16.9104 9.61746L14.3824 7.08947ZM15.7839 4.27367L4.83799 15.2202C4.51861 15.5395 4.30088 15.9463 4.21229 16.3892L3.50972 19.9019C3.47693 20.0659 3.52824 20.2353 3.64646 20.3536C3.76468 20.4718 3.93415 20.5231 4.09809 20.4903L7.61004 19.7877C8.05292 19.6992 8.4597 19.4814 8.77906 19.1621L19.719 8.22345L19.7268 8.21539C20.2305 7.68871 20.508 6.98573 20.4998 6.25697C20.4917 5.52822 20.1985 4.83163 19.6831 4.31637C19.1676 3.80111 18.471 3.50813 17.7422 3.50017C17.0134 3.4922 16.3104 3.7698 15.7839 4.27367Z" fill="#1B1D1F"/>
</svg>
