<svg width="16" height="16" viewBox="0 0 16 16" fill="none" xmlns="http://www.w3.org/2000/svg">
<path d="M15 6.99998H3.83005L8.71005 2.11998C9.10005 1.72998 9.10005 1.08998 8.71005 0.699975C8.61753 0.607272 8.50764 0.533724 8.38667 0.483543C8.2657 0.433361 8.13602 0.407532 8.00505 0.407532C7.87408 0.407532 7.7444 0.433361 7.62342 0.483543C7.50245 0.533724 7.39256 0.607272 7.30005 0.699975L0.710047 7.28998C0.617343 7.38249 0.543796 7.49238 0.493614 7.61335C0.443433 7.73432 0.417603 7.86401 0.417603 7.99498C0.417603 8.12594 0.443433 8.25563 0.493614 8.3766C0.543796 8.49757 0.617343 8.60746 0.710047 8.69998L7.30005 15.29C7.39263 15.3826 7.50254 15.456 7.6235 15.5061C7.74447 15.5562 7.87412 15.582 8.00505 15.582C8.13598 15.582 8.26563 15.5562 8.38659 15.5061C8.50755 15.456 8.61747 15.3826 8.71005 15.29C8.80263 15.1974 8.87607 15.0875 8.92617 14.9665C8.97628 14.8456 9.00207 14.7159 9.00207 14.585C9.00207 14.454 8.97628 14.3244 8.92617 14.2034C8.87607 14.0825 8.80263 13.9726 8.71005 13.88L3.83005 8.99998H15C15.55 8.99998 16 8.54998 16 7.99998C16 7.44998 15.55 6.99998 15 6.99998Z" fill="#1B1D1F"/>
</svg>
