<svg width="24" height="24" viewBox="0 0 24 24" fill="none" xmlns="http://www.w3.org/2000/svg">
<path fill-rule="evenodd" clip-rule="evenodd" d="M2.44995 8.85002C2.44995 5.85012 4.83356 3.40002 7.7961 3.40002C9.50289 3.40002 11.0191 4.21498 11.9961 5.47774C12.9731 4.21498 14.4893 3.40002 16.1961 3.40002C19.1586 3.40002 21.5423 5.85012 21.5423 8.85002C21.5423 9.14213 21.5197 9.4292 21.4761 9.70945C21.3425 10.8799 20.6602 12.1367 19.7852 13.3276C18.8978 14.5353 17.7671 15.7349 16.6627 16.7924C15.5565 17.8516 14.4664 18.7779 13.6537 19.4389C13.247 19.7697 12.909 20.0346 12.6722 20.2172C12.5538 20.3085 12.4607 20.3793 12.3968 20.4275L12.3235 20.4825L12.3043 20.4968L12.2978 20.5016C12.2977 20.5017 12.2972 20.5021 12 20.1C11.7067 20.505 11.7066 20.5049 11.7065 20.5048L11.7047 20.5035L11.6997 20.4999L11.6808 20.4861L11.6088 20.4331C11.5461 20.3868 11.4546 20.3186 11.3383 20.2306C11.1057 20.0546 10.7735 19.799 10.3734 19.479C9.57384 18.8397 8.49979 17.9411 7.40479 16.9062C6.31148 15.8728 5.18756 14.6943 4.29449 13.4946C3.412 12.3092 2.7163 11.0526 2.54221 9.86301C2.48159 9.53441 2.44995 9.19575 2.44995 8.85002ZM12 20.1L11.7065 20.5048L12.003 20.7196L12.2978 20.5016L12 20.1ZM11.9971 19.475C12.0176 19.4592 12.0391 19.4427 12.0615 19.4254C12.2924 19.2473 12.6235 18.9878 13.0227 18.6631C13.8216 18.0133 14.89 17.1052 15.9711 16.0701C17.054 15.0332 18.1396 13.8784 18.9794 12.7355C19.8287 11.5795 20.3828 10.4936 20.4835 9.58756L20.4848 9.57622L20.4865 9.56494C20.5232 9.33248 20.5423 9.09371 20.5423 8.85002C20.5423 6.38231 18.5865 4.40002 16.1961 4.40002C14.5919 4.40002 13.1856 5.29048 12.4314 6.62488L11.9961 7.3951L11.5608 6.62488C10.8067 5.29048 9.40031 4.40002 7.7961 4.40002C5.40573 4.40002 3.44995 6.38231 3.44995 8.85002C3.44995 9.13756 3.47652 9.41827 3.52715 9.68986L3.52905 9.70004L3.53053 9.7103C3.66624 10.6537 4.24325 11.7511 5.09663 12.8975C5.94199 14.0331 7.02075 15.1672 8.0917 16.1794C9.16096 17.1901 10.2128 18.0702 10.998 18.698C11.3902 19.0117 11.7153 19.2618 11.9417 19.4332C11.9609 19.4477 11.9793 19.4616 11.9971 19.475Z" fill="#1B1D1F"/>
</svg>
