<svg width="20" height="20" viewBox="0 0 20 20" fill="none" xmlns="http://www.w3.org/2000/svg">
<path fill-rule="evenodd" clip-rule="evenodd" d="M10.8839 2.79458C10.3957 2.30643 9.60427 2.30643 9.11612 2.79458L5.58058 6.33012C5.41786 6.49284 5.41786 6.75665 5.58058 6.91937C5.7433 7.08209 6.00712 7.08209 6.16984 6.91937L9.58333 3.50588V11.6666C9.58333 11.8967 9.76988 12.0833 10 12.0833C10.2301 12.0833 10.4167 11.8967 10.4167 11.6666V3.50588L13.8302 6.91937C13.9929 7.08209 14.2567 7.08209 14.4194 6.91937C14.5821 6.75665 14.5821 6.49284 14.4194 6.33012L10.8839 2.79458ZM2.91667 10.4166C3.14679 10.4166 3.33333 10.6032 3.33333 10.8333V15.8333C3.33333 16.0634 3.51988 16.2499 3.75 16.2499H16.25C16.4801 16.2499 16.6667 16.0634 16.6667 15.8333V10.8333C16.6667 10.6032 16.8532 10.4166 17.0833 10.4166C17.3135 10.4166 17.5 10.6032 17.5 10.8333V15.8333C17.5 16.5236 16.9404 17.0833 16.25 17.0833H3.75C3.05964 17.0833 2.5 16.5236 2.5 15.8333V10.8333C2.5 10.6032 2.68655 10.4166 2.91667 10.4166Z" fill="#1B1D1F"/>
</svg>
