<svg width="24" height="24" viewBox="0 0 24 24" fill="none" xmlns="http://www.w3.org/2000/svg">
<path fill-rule="evenodd" clip-rule="evenodd" d="M5.5 10.5C6.32843 10.5 7 11.1716 7 12C7 12.8284 6.32843 13.5 5.5 13.5C4.67157 13.5 4 12.8284 4 12C4 11.1716 4.67157 10.5 5.5 10.5ZM12 10.5C12.8284 10.5 13.5 11.1716 13.5 12C13.5 12.8284 12.8284 13.5 12 13.5C11.1716 13.5 10.5 12.8284 10.5 12C10.5 11.1716 11.1716 10.5 12 10.5ZM20 12C20 11.1716 19.3284 10.5 18.5 10.5C17.6716 10.5 17 11.1716 17 12C17 12.8284 17.6716 13.5 18.5 13.5C19.3284 13.5 20 12.8284 20 12Z" fill="#1B1D1F"/>
</svg>
