<svg width="24" height="24" viewBox="0 0 24 24" fill="none" xmlns="http://www.w3.org/2000/svg">
<circle cx="12" cy="12" r="12" fill="#429AEB"/>
<path fill-rule="evenodd" clip-rule="evenodd" d="M15.3817 16.3379C14.4489 17.0661 13.2751 17.5 12 17.5C8.96243 17.5 6.5 15.0376 6.5 12C6.5 8.96243 8.96243 6.5 12 6.5C15.0376 6.5 17.5 8.96243 17.5 12C17.5 13.2188 17.1036 14.345 16.4326 15.2567L15.1567 13.7361C14.8904 13.4188 14.4174 13.3775 14.1 13.6437C13.7827 13.91 13.7414 14.383 14.0076 14.7003L15.3817 16.3379ZM16.3464 17.4875C15.1524 18.4345 13.6422 19 12 19C8.13401 19 5 15.866 5 12C5 8.13401 8.13401 5 12 5C15.866 5 19 8.13401 19 12C19 13.6817 18.407 15.2249 17.4186 16.4319L18.3469 17.5381C18.6132 17.8554 18.5718 18.3285 18.2545 18.5948C17.9372 18.861 17.4641 18.8196 17.1979 18.5023L16.3464 17.4875Z" fill="white"/>
</svg>
