<svg width="24" height="24" viewBox="0 0 24 24" fill="none" xmlns="http://www.w3.org/2000/svg">
<path fill-rule="evenodd" clip-rule="evenodd" d="M18 10.5C18 14.0899 15.0899 17 11.5 17C7.91015 17 5 14.0899 5 10.5C5 6.91015 7.91015 4 11.5 4C15.0899 4 18 6.91015 18 10.5ZM16.7619 17.176C15.3146 18.3183 13.4869 19 11.5 19C6.80558 19 3 15.1944 3 10.5C3 5.80558 6.80558 2 11.5 2C16.1944 2 20 5.80558 20 10.5C20 12.4868 19.3183 14.3145 18.1761 15.7618L20.9498 18.5355C21.3403 18.926 21.3403 19.5592 20.9498 19.9497C20.5593 20.3402 19.9261 20.3402 19.5356 19.9497L16.7619 17.176Z" fill="#429AEB"/>
</svg>