<svg width="56" height="56" viewBox="0 0 56 56" fill="none" xmlns="http://www.w3.org/2000/svg">
<circle cx="28" cy="28" r="28" fill="#429AEB"/>
<path fill-rule="evenodd" clip-rule="evenodd" d="M32.5056 19.8077L34.5321 17.7811C35.024 17.3131 35.6791 17.0553 36.3582 17.0627C37.0398 17.0702 37.6914 17.3442 38.1735 17.8261C38.6556 18.3081 38.9298 18.9596 38.9374 19.6412C38.945 20.3202 38.6875 20.9753 38.2196 21.4673L36.1924 23.4944L32.5056 19.8077ZM31.4744 20.8389L18.5867 33.7274C18.3245 33.9895 18.1457 34.3234 18.073 34.687L17.263 38.7372L21.312 37.9272C21.6756 37.8545 22.0095 37.6758 22.2717 37.4136L35.1611 24.5255L31.4744 20.8389ZM33.5182 16.7325L17.5555 32.6962C17.0897 33.1619 16.7722 33.7551 16.643 34.401L15.6184 39.5237C15.5706 39.7628 15.6454 40.01 15.8178 40.1824C15.9902 40.3548 16.2374 40.4296 16.4765 40.3817L21.5981 39.3572C22.2439 39.228 22.8371 38.9105 23.3029 38.4448L39.257 22.4926L39.2683 22.4809C40.0029 21.7128 40.4076 20.6876 40.3957 19.6248C40.3838 18.5621 39.9562 17.5462 39.2045 16.7948C38.4529 16.0434 37.4369 15.6161 36.3741 15.6045C35.3113 15.5929 34.2861 15.9977 33.5182 16.7325Z" fill="white"/>
</svg>
