<svg width="14" height="15" viewBox="0 0 14 15" fill="none" xmlns="http://www.w3.org/2000/svg">
<rect y="0.5" width="14" height="14" rx="7" fill="#C9CDD2"/>
<path fill-rule="evenodd" clip-rule="evenodd" d="M9.5692 5.40229C9.69937 5.27211 9.69937 5.06106 9.5692 4.93088C9.43902 4.80071 9.22797 4.80071 9.09779 4.93088L7.00016 7.02851L4.90253 4.93088C4.77236 4.80071 4.5613 4.80071 4.43113 4.93088C4.30095 5.06106 4.30095 5.27211 4.43113 5.40229L6.52876 7.49992L4.43113 9.59755C4.30095 9.72772 4.30095 9.93878 4.43113 10.069C4.5613 10.1991 4.77236 10.1991 4.90253 10.069L7.00016 7.97132L9.09779 10.069C9.22797 10.1991 9.43902 10.1991 9.5692 10.069C9.69937 9.93878 9.69937 9.72772 9.5692 9.59755L7.47157 7.49992L9.5692 5.40229Z" fill="white"/>
</svg>
